# xmcd
#
# Track frame offsets: 
#        150
#        13152
#        29413
#        45245
#        63909
#        79658
#        101062
#        114284
#        127841
#        149795
#        160936
#        169104
#        181940
#
# Disc length: 2473 seconds
#
# Revision: 0
# Processed by: cddbd v1.5.2PL0 Copyright (c) Steve Scherf et al.
# Submitted via: ExactAudioCopy v0.95a5
#
DISCID=a409a70d
DTITLE=Blistering - The Highway Is Like A Woman
DYEAR=2002
DGENRE=Blues
TTITLE0=Reet, Petite And Gone
TTITLE1=Chips Flying Everywhere
TTITLE2=What A Fool I Was
TTITLE3=Feelin' Good
TTITLE4=Black Nights
TTITLE5=Cigarette Blues
TTITLE6=Always Have A Home
TTITLE7=West Memphis Promenade
TTITLE8=The Highway Is Like A Woman
TTITLE9=Taylor's Rock
TTITLE10=How Long Can This Go On
TTITLE11=Party Girl
TTITLE12=Stray Bullet
EXTD=
EXTT0=
EXTT1=
EXTT2=
EXTT3=
EXTT4=
EXTT5=
EXTT6=
EXTT7=
EXTT8=
EXTT9=
EXTT10=
EXTT11=
EXTT12=
PLAYORDER=
